<!--?xml version="1.0" encoding="utf-8"?-->
<!-- Generator: Adobe Illustrator 18.1.1, SVG Export Plug-In . SVG Version: 6.00 Build 0)  -->

<svg version="1.1" id="_x31_0" xmlns="http://www.w3.org/2000/svg" xmlns:xlink="http://www.w3.org/1999/xlink" x="0px" y="0px" viewBox="0 0 512 512" xml:space="preserve">
<style type="text/css">
</style>
<g>
	<path class="st0" d="M484.992,60.131h-10.519H27.004C12.09,60.131,0,72.224,0,87.139v337.726c0,14.914,12.09,27.004,27.004,27.004
		h457.988c14.918,0,27.008-12.09,27.008-27.004V87.139C512,72.224,499.91,60.131,484.992,60.131z M46.547,393.396
		c47.21-37.867,94.414-75.742,141.613-113.629l49.379,39.41c9.875,7.878,23.89,7.863,33.746-0.043l52.555-42.16
		c47.21,37.637,94.418,75.277,141.613,112.934v15.418H46.547V393.396z M465.355,345.143c-31.187-24.879-62.382-49.75-93.582-74.618
		l-19.981-15.973c37.879-30.434,75.766-60.855,113.66-91.266v112.122L465.355,345.143z M465.453,106.678v11.87
		c-64.738,51.954-129.48,103.906-194.234,155.848c-9.851,7.902-23.863,7.926-33.738,0.051
		c-63.645-50.746-127.298-101.481-190.934-152.234v-15.535h417.789H465.453z M160.145,257.506
		c-23.328,18.73-46.668,37.449-70,56.168l-43.598,34.855V166.838c31.058,24.789,62.121,49.566,93.191,74.343L160.145,257.506z"></path>
</g>
</svg>
